# xmcd CD database file
#
# Track frame offsets:
#	150
#	15085
#	27722
#	48823
#	67431
#	85628
#
# Disc length: 1388 seconds
#
# Revision: 0
# Processed by: cddbd v1.5.2PL0 Copyright (c) Steve Scherf et al.
# Submitted via: CDex 1.70beta2
#
DISCID=43056a06
DTITLE=Carla Bley  - 1957-63 Carla Bley une fine plume Mon CD jazzmagazine
DYEAR=2013
DGENRE=Jazz
TTITLE0=0 Plus One
TTITLE1=Jimmy Giuffre 3 - Ictus 
TTITLE2=Don Ellis - Donkey
TTITLE3=George Russell - Zig-Zag
TTITLE4=Paul Bley Trio - King Korn
TTITLE5=	 - Vashkar
EXTD=YEAR: 2013
EXTT0=
EXTT1=
EXTT2=
EXTT3=
EXTT4=
EXTT5=
PLAYORDER=
